<svg width="2000" height="1000" xmlns="http://www.w3.org/2000/svg"><defs><linearGradient id="a" gradientTransform="rotate(90)"><stop offset="5%" stop-color="#3c1c9a"/><stop offset="95%" stop-color="#6c54b3"/></linearGradient><linearGradient id="b" gradientTransform="rotate(90)"><stop offset="5%" stop-color="#6032dc"/><stop offset="95%" stop-color="#8765e4"/></linearGradient></defs><path fill="#170557" d="M0 0h2000v1000H0z"/><path d="M0 333c57.743 22.076 115.485 44.152 164 31 48.515-13.152 87.801-61.532 139-63 51.199-1.468 114.31 43.977 165 44 50.69.023 88.96-45.375 134-56 45.04-10.625 96.85 13.524 149 45 52.15 31.476 104.641 70.28 156 60 51.359-10.28 101.585-69.643 155-86 53.415-16.357 110.02 10.291 160 27 49.98 16.709 93.334 23.478 146 38 52.666 14.522 114.642 36.797 173 37 58.358.203 113.096-21.667 162-54 48.904-32.333 91.974-75.128 146-91 54.026-15.872 119.007-4.82 146 11 26.993 15.82 15.996 36.41 45 57l-40 667H0Z" fill="url(#a)"/><path d="M0 666c53.087-25.723 106.174-51.445 161-49 54.826 2.445 111.39 33.058 161 60s92.267 50.214 144 55c51.733 4.786 112.544-8.914 166-6 53.456 2.914 99.559 22.443 144 6s87.221-68.86 139-93c51.779-24.14 112.556-20.007 168-7 55.444 13.007 105.553 34.885 151 57 45.447 22.115 86.23 44.465 139 60 52.77 15.535 117.524 24.254 177-7s113.674-102.48 155-117c41.326-14.52 69.78 27.668 125 33 55.22 5.332 137.206-26.19 170-31 32.794-4.81 16.397 17.095 40 39l-40 334H0Z" fill="url(#b)"/></svg>